# xmcd
# 
# Track frame offsets:
#     150
#     16047
#     32952
#     53417
#     70455
#     83567
#     100260
#     116515
#     139182
#     165130
#     185887
#     207142
#     223717
# 
# Disc length: 3354
# 
# Revision: 0
# Processed by: cddbd v1.5.2PL0 Copyright (c) Steve Scherf et al.
# Submitted via: fre:ac v1.0.31
# 
DISCID=ab0d180d
DTITLE=Mary Chapin Carpenter - Stones In The Road
DYEAR=1994
DGENRE=Country
TTITLE0=Why Walk When You Can Fly
TTITLE1=House of Cards
TTITLE2=Stones in the Road
TTITLE3=A Keeper for Every Flame
TTITLE4=Tender When I Want to Be
TTITLE5=Shut Up and Kiss Me
TTITLE6=The Last Word
TTITLE7=The End of My Pirate Days
TTITLE8=John Doe No. 24
TTITLE9=Jubilee
TTITLE10=Outside Looking in
TTITLE11=Where Time Stands Still
TTITLE12=This is Love
EXTD=YEAR: 1994 ID3G: 2
EXTT0=
EXTT1=
EXTT2=
EXTT3=
EXTT4=
EXTT5=
EXTT6=
EXTT7=
EXTT8=
EXTT9=
EXTT10=
EXTT11=
EXTT12=
PLAYORDER=
